<svg xmlns="http://www.w3.org/2000/svg" viewBox="0 0 548 478" width="548" height="478">
	<defs>
		<clipPath clipPathUnits="userSpaceOnUse" id="cp1">
			<path d="M-632 0L547.88 0L547.88 477.5L-632 477.5L-632 0Z" />
		</clipPath>
	</defs>
	<style>
		tspan { white-space:pre }
		.shp0 { fill: none } 
		.shp1 { fill: none;stroke: #efefef;stroke-width: 6 } 
		.shp2 { fill: #efefef } 
		.shp3 { opacity: 0.302;fill: none;stroke: #6a696b;stroke-width: 0.5 } 
	</style>
	<g id="Clip-Path: symbols" clip-path="url(#cp1)">
		<g id="symbols">
			<g id="_4">
				<path id="Layer" class="shp0" d="M104.69 91.53C92.65 91.53 82.91 81.8 82.91 69.75C82.91 57.71 92.65 47.98 104.69 47.98C116.73 47.98 126.47 57.71 126.47 69.75C126.47 81.8 116.73 91.53 104.69 91.53Z" />
				<path id="Layer" class="shp1" d="M104.69 88.53C94.31 88.53 85.91 80.14 85.91 69.75C85.91 59.37 94.31 50.98 104.69 50.98C115.07 50.98 123.47 59.37 123.47 69.75C123.47 80.14 115.07 88.53 104.69 88.53Z" />
			</g>
			<g id="_3">
				<path id="Layer" class="shp0" d="M89.19 327.53C80.19 327.53 72.91 320.25 72.91 311.25C72.91 302.25 80.19 294.98 89.19 294.98C98.19 294.98 105.47 302.25 105.47 311.25C105.47 320.25 98.19 327.53 89.19 327.53Z" />
				<path id="Layer" class="shp1" d="M89.19 324.53C81.85 324.53 75.91 318.59 75.91 311.25C75.91 303.91 81.85 297.98 89.19 297.98C96.53 297.98 102.47 303.91 102.47 311.25C102.47 318.59 96.53 324.53 89.19 324.53Z" />
			</g>
			<g id="_2">
				<path id="Layer" class="shp0" d="M452.35 27.55C444.73 27.55 438.58 21.39 438.58 13.78C438.58 6.16 444.73 0 452.35 0C459.97 0 466.13 6.16 466.13 13.78C466.13 21.39 459.97 27.55 452.35 27.55Z" />
				<path id="Layer" class="shp1" d="M452.35 24.55C446.39 24.55 441.58 19.74 441.58 13.78C441.58 7.82 446.39 3 452.35 3C458.31 3 463.13 7.82 463.13 13.78C463.13 19.74 458.31 24.55 452.35 24.55Z" />
			</g>
			<g id="_1">
				<path id="Layer" class="shp0" d="M506.72 175.96C495.23 175.96 485.95 166.67 485.95 155.18C485.95 143.69 495.23 134.41 506.72 134.41C518.21 134.41 527.5 143.69 527.5 155.18C527.5 166.67 518.21 175.96 506.72 175.96Z" />
				<path id="Layer" class="shp1" d="M506.72 172.96C496.89 172.96 488.95 165.01 488.95 155.18C488.95 145.35 496.89 137.41 506.72 137.41C516.55 137.41 524.5 145.35 524.5 155.18C524.5 165.01 516.55 172.96 506.72 172.96Z" />
			</g>
			<path id="_4-2" class="shp2" d="M470.1 217.11L509.15 232.17L475.94 257.88L470.1 217.11Z" />
			<path id="_3-2" class="shp2" d="M79.54 161.6L90.31 202.05L49.98 190.3L79.54 161.6Z" />
			<path id="_2-2" class="shp2" d="M184.23 83.31L210.62 103.99L179.16 115.91L184.23 83.31Z" />
			<path id="_1-2" class="shp2" d="M536.57 47.2L512.42 70.45L504.99 37.64L536.57 47.2Z" />
			<path id="_9" class="shp2" d="M140.52 172.37L151.14 176.88L155.77 166.48L161.38 168.98L166.38 171.1L171.02 160.7L171.15 160.75L171.24 160.57L181.59 165.4L186.27 154.92L186.4 154.98L186.48 154.79L202.48 162.25L199.83 167.93L189.48 163.1L184.8 173.59L184.67 173.53L184.59 173.71L174.23 168.88L169.56 179.37L163.95 176.87L158.95 174.74L154.31 185.15L148.74 182.66L138.07 178.13L140.52 172.37Z" />
			<path id="_8" class="shp2" d="M446.55 454.38L457.16 458.88L461.8 448.48L467.41 450.98L472.4 453.1L477.03 442.7L477.17 442.76L477.25 442.58L487.61 447.4L492.27 436.92L492.41 436.98L492.49 436.8L508.48 444.25L505.84 449.93L495.49 445.1L490.82 455.58L490.68 455.53L490.6 455.71L480.25 450.88L475.58 461.36L469.97 458.86L464.97 456.74L460.34 467.14L454.77 464.66L444.1 460.14L446.55 454.38Z" />
			<path id="_7" class="shp2" d="M461.62 99.51L458.09 89.26L447.92 92.57L446.14 87.08L444.47 82.26L434.3 85.56L434.25 85.43L434.07 85.49L430.93 75.22L420.67 78.55L420.63 78.42L420.45 78.48L415.6 62.62L421.23 60.9L424.37 71.17L434.63 67.83L434.67 67.96L434.85 67.91L437.99 78.17L448.25 74.84L450.03 80.33L451.69 85.16L461.87 81.85L463.64 87.3L467.19 97.6L461.62 99.51Z" />
			<path id="_6" class="shp2" d="M192.02 38.57L192.02 28.87L182.32 28.87L182.32 20.24L192.02 20.24L192.02 10.54L200.65 10.54L200.65 20.24L210.35 20.24L210.35 28.86L200.65 28.86L200.65 38.56L192.02 38.57Z" />
			<path id="_5" class="shp2" d="M119.91 263.97L119.91 254.27L110.21 254.27L110.21 245.64L119.91 245.64L119.91 235.94L128.54 235.94L128.54 245.64L138.24 245.64L138.24 254.26L128.54 254.26L128.54 263.96L119.91 263.97Z" />
			<path id="_4-3" class="shp2" d="M530.73 313.71L524.82 304.62L515.73 310.53L510.48 302.44L519.57 296.54L513.67 287.44L521.75 282.19L527.66 291.29L536.75 285.38L542 293.46L532.91 299.37L538.81 308.46L530.73 313.71Z" />
			<path id="_3-3" class="shp2" d="M78.92 463.01L77.27 455.86L70.13 457.51L68.66 451.16L75.81 449.51L74.16 442.36L80.51 440.9L82.16 448.04L89.3 446.39L90.77 452.75L83.63 454.4L85.28 461.54L78.92 463.01Z" />
			<path id="_2-3" class="shp2" d="M422.17 161.96L423.08 149.05L410.17 148.15L410.98 136.68L423.88 137.58L424.79 124.68L436.26 125.48L435.35 138.39L448.26 139.29L447.45 150.76L434.55 149.86L433.64 162.76L422.17 161.96Z" />
			<path id="_1-3" class="shp2" d="M290.92 88.04L286.68 78.06L276.76 82.08L274.6 76.73L272.6 72.03L262.68 76.03L262.63 75.91L262.46 75.97L258.61 65.95L248.61 69.99L248.56 69.86L248.38 69.93L242.43 54.45L247.93 52.34L251.78 62.36L261.78 58.32L261.83 58.45L262.01 58.38L265.85 68.41L275.86 64.36L278.02 69.71L280.01 74.41L289.93 70.41L292.08 75.72L296.33 85.74L290.92 88.04Z" />
			<path id="_2-4" class="shp2" d="M495.53 350.21L526.29 359.03L517.47 389.79L486.71 380.97L495.53 350.21Z" />
			<path id="_1-4" class="shp2" d="M38.22 382.07L64.42 363.7L82.79 389.91L56.59 408.28L38.22 382.07Z" />
			<path id="line" class="shp3" d="M-632 477.5L539 477.5" />
		</g>
	</g>
</svg>